<svg xmlns="http://www.w3.org/2000/svg" width="102" height="44"><defs><linearGradient id="a" x1="51.01" x2="51.01" y1="0" y2="35.65" gradientUnits="userSpaceOnUse"><stop offset="0" stop-color="#f86b01"/><stop offset="1" stop-color="#d1170d"/></linearGradient></defs><path d="m18.57 21.52.17-.28.26-.18-.02-.19.98-.17 1.03-.49-.16.57-1.05.38s-1.06.37-1.2.37h-.01m-.7-6.36-.33.47-.41.26-1.03.21c.16-.08.37-.25.37-.25l.53-.2s.04-.25 0-.41.53 0 .53 0l.33-.07ZM.78.65l.16.43.44.31s.22.58.49 1.04.57 1.72.57 1.72c.27 1.29.75 5.36.6 7.7s-.24 5.91-.27 6 .3.29.3.29l.3.24s-.15.41-.15.51.48.4.48.4-.15.95-.43 1.07c-.27.12-.36.49-.36.49l-.1.32.81.29 1.11.06-.35.19-.4.1-1.19.02s.03.31.03.52c-.06.58-.42 3.76-.42 3.91s-.15.73-.24.97c-.09.25-.5.98-.5.98s.17.04.38.04 1.94.4 2.15.47c.21.06 2.68.58 3.1.8s1.22.49 1.54.68c.33.19 1.76.74 1.88.86s.63.25.63.25l-.51-.74c-.09-.12-.6-.43-.6-.43s-.42-.62-.72-.89c-.3-.28-1.44-1.57-1.44-1.57s-.18-.62-.18-.92-.24-3.63-.24-3.76-.06-.68-.06-.68.12-.15.03-.34.09-.74.09-.92.15-1.08.15-1.08 1.89-.65 3.55-1.17c1.65-.52 6.58-1.2 6.58-1.2-.03.28 0 3.11 0 3.11l.15.34-.12.28c-.03.86-.21 7.6-.24 7.7-.03.09-.09.55-.12.74s-.03.28-.21.49-.72.74-.72.74l.82.51 2.28.92 2.83 1.35 1.52.56 1.55.47.64.15 1.2.68c-.1-.17-.84-.97-.84-.97l-.68-.32-.95-.92s-1.51-1.07-1.71-1.64c-.27-.77-.51-10.19-.51-10.19l-.09-.4-.12-.28-.4-.07.6-.66c-.06-1.44.24-8.61.24-8.61l.15-3.66s.19-4.02.19-4.05c0-.09-.03-.59-.03-.59l-.24.18s-.24-.22-.45-.34-.3-.31-.3-.31l.51-.19s.72-.21.81-.25c.09-.03.66-.21.66-.21s.84-.59.96-.77c.12-.19.18-.65.18-.65s-9.59 0-9.68.03.03.49.18.58.6.49.87.89.66 2.03.72 2.89.21 7.88.21 7.88v.99c-3.13 1.23-10.36 1.55-10.36 1.55s-.57-.03-.66 0 .09-.28.18-.34.27-.28.36-.37.54-.4.54-.4c.03-.34.12-5.45.12-6.13s.18-3.85.24-4.32c.06-.46.45-1.54.63-1.76.18-.21 1.35-.83 1.35-.83V.7S6.79.82 6.7.67C6.65.59 5.51.63 4.4.67 3.37.7 2.37.74 2.29.67S1.81.58 1.44.58c-.3 0-.58.01-.69.03m31.13 7.92c.12-.29.31-1.19.39-1.25s1.03-1.5 1.27-1.79c.25-.29.33-.51.51-.53s.49-.53.59-.53.35-.06.57-.12c.23-.06 2.44-.06 2.73 0l.12.29s-.06.35 0 .35.35.06.27.12-.27.31-.29.37.02.49 0 .6c-.02.1-.16 4.31-.1 4.41s-.02 2.01-.02 2.01-.87-.14-.95-.16-2.67-.76-2.98-.88-2.42-1.03-2.34-1.01c.08 0 .08-1.58.2-1.87m1.1-7.43c-.43.18-2.36 1.18-2.65 1.51s-1.85 2.15-2.01 2.46-.92 1.56-.96 1.8-.31 1.29-.31 1.29-1.58.22-2.05.39c-.15.06 1.23.39 1.35.39s.99.44 1.19.57c.21.13.62.7.74.7s.78.39.78.39.66.53.78.66.49.75.49.75l-1.31-.22-1.07-.53-1.07-.2-.49-.04s.04 9.02 0 9.24-.25 1.1-.29 1.32-.2.96-.25 1.23c-.04.26-.45 2.33-.53 2.54-.08.22-.53 1.54-.58 1.71-.04.18-.78 1.45-.78 1.45l.57-.22s1.97-1.93 2.22-2.24 1.6-2.37 1.76-2.59.86-2.28.86-2.28.53-.66.57-.88.41-1.62.37-1.78c-.04-.15-.16-3.93 0-4.23.16-.31.45-.92.45-.92s.7-.31.86-.18 3.82.83 4.23 1.01 1.56.75 1.76.75.37.22.37.22v1.76s-.08 1.01 0 1.14 0 2.98 0 2.98l.2.48-.33.13s-.37.53-.45.66-.45.79-.62.97c-.16.18-.62.88-.49.88s.74-.13.74-.13 1.35-.19 1.81-.26c.45-.07 1.66-.06 1.83 0 .16.06.94.48 1.13.52s.9.44.96.46.72.26.72.26l-.51-.53s-.12-.37-.18-.53c-.06-.15-.33-.55-.35-.64s-.35-.79-.35-.86-.02-1.01-.02-1.01-.12-9.15-.1-11.1.06-6.12.14-6.36.53-.59.66-.7c.12-.11.31-.55.37-.68s.47-.55.57-.72c.1-.18.57-.64.68-.68.1-.04.7-.61.7-.61s-.9.18-1.01.22c-.04.02-.19.01-.36 0-.22 0-.46-.01-.5.04-.08.09-1.68.11-1.99.07S36.83.63 36.01.61h-.08c-.85 0-2.58.31-3 .48M55.9.65c-.41.18-3.2.84-3.53.92s-1.15-.04-1.35.16-1.07.41-1.27.49c-.21.08-1.6.33-1.76.41s-1.89.33-1.89.33L45.03 3l.37.41s1.31.33 1.44.37c.12.04 1.76.29 2.34.2.57-.08 3.45-.15 3.61-.28s1.44-.17 1.77-.3c.33-.12 2.63-.37 2.63-.37s1.48 2.71 1.68 3.04c.21.33.57 1.72.66 1.97.08.25.25 1.11.29 1.48s.12 2.09.21 2.38c.08.29.29 1.6.29 1.93s.16 1.44 0 1.6-1.27 3.61-1.64 4.1-2.18 2.63-2.83 2.87c-.66.25-1.64.21-1.93.33s-2.22-.37-2.22-.37-.33-.49-.45-.9-.16-1.97-.16-2.42.08-2.5.08-2.5-.16-.2-.16-.33-.25-.37 0-.45.41-.37.41-.37v-.78c0-.33-.21-3.08-.16-3.61.04-.53.16-2.34.12-2.46s-1.27-.37-1.48-.41-.66-.25-.82-.41-.82-.25-1.07-.37-1.64-.78-1.76-.78-.53-.08-.53-.08.41 5.87.45 8.54.04 5.5 0 5.66-.25.66-.29.78-.04.82-.16 1.03c-.12.2-.45.82-.53.94s-.62.62-.62.62l-.53.82s.62-.25.9-.21c.13.02.86-.04 1.65-.09.97-.07 2.03-.14 2.21-.07.33.12 4.02.08 4.68.04s3.24-.08 5.25-.86 3.45-2.13 3.45-2.13 1.39-1.4 1.48-1.64c.08-.25 1.19-2.42 1.23-2.71s-.12-.82 0-1.03.21-.78.29-.99.37-1.35.41-1.56c.04-.2.04-2.63 0-2.87-.04-.25-.33-2.59-.41-3.08s-.49-.9-.49-1.07-.2-.29-.33-.66c-.12-.37-2.17-3.82-3.08-4.39-.48-.31-1.18-.52-1.18-.52s-.43-.18-.5-.4l-.82-.43s-2.42.25-2.83.43M80.54.51c-.12.16-.99.53-2.09.66-1.11.12-9.03.08-9.89.04S64.5 1 64.5 1v.29s.31.53.6.62c.3.08.71.41.79.53s.45.57.62.7c.16.12.45.45.45.45l.16.67V6.3h1.39c-.08 0-.2.49-.25.62-.04.12-.12.33-.2.45s-.16.53-.16.53l-.25.2-.25.37-.37.41s.33 2.83.33 4.31.04 6.12.08 6.57 0 1.39 0 1.56-.12.25-.21.45c-.08.21-.16.53-.2.66-.04.12-.53.41-.53.41s-.13.3-.17.41c-.04.12-.16.24-.33.32-.16.08-.37.16-.53.29-.16.12-.62.41-.62.41l-.12.2s1.56-.33 1.77-.2c.1.06.72-.01 1.35-.08.64-.07 1.29-.14 1.48-.08.37.12 3.2.25 3.65.37s3.41.86 3.82.9 1.19.37 1.31.37.7.12.82.2.86-1.6 1.03-1.76c.16-.16.57-.69.78-.94s.7-.62.74-.83c.04-.2.41-.98.41-.98s.51-.56.68-.65c.16-.08.28-.63.28-.63s-.32.09-.44.09-.65.33-.85.41c-.21.08-.82.29-1.03.41s-.73.53-.97.74c-.25.21-1.15.53-1.15.53s-3.73.03-4.47-.13-.74-.21-.74-.21-.08-2.83-.04-2.95.08-.45.12-.66 0-.62 0-.78.04-.45.04-.45-.7.25-.82.29-.78.37-.9.49-.86.37-1.03.41c-.16.04-.62.16-.49.04.12-.12 1.03-1.15 1.19-1.19s.9-.41 1.11-.66 1.31-1.68 1.72-1.68 2.36-.83 2.69-.81c.16.01.64-.1 1.11-.22.5-.12 1-.24 1.14-.22.29.04 1.44.04 1.44.04s.06-1.26-.02-1.71-.16-1.11-.16-1.64 0-1.27-.04-1.68 0-.74 0-.74-.45.49-.53.66c-.08.16-.53.7-.62.86-.08.16-1.76 1.48-2.34 1.72s-2.22.82-2.67.86-1.23.16-1.23.16l-.37-.08s.12-3.61.2-4.84.21-3.24.29-3.41c.08-.16.37-.62.49-.62s3.94.16 4.43.2 2.13.81 2.34.84.7.72.82.85c.12.12.37.7.53.82s.74.9.74.9-.04-1.15-.04-1.27-.21-1.24-.25-1.3-.45-.47-.41-.84-.21-.7-.21-.94-.29-1.11-.25-1.19-.12-1.07-.12-1.07-.41.12-.53.29m16.75 28.63c.04-.16.21-.91.37-1.03s.37-.37.37-.37 0-.37.2-.53l.21-.16v.82l-.16.45h-.37s-.12.25-.25.41c-.1.14-.32.45-.37.45 0 0-.01-.01 0-.04m-7.75-16.02s-.02.06-.04.1c.03-.1.04-.15.04-.1M93.8.22c-.45.04-4.02.29-4.35.33s-1.81.45-2.05.66c-.25.21-1.6 1.52-1.76 1.56s-1.31.98-1.44 1.11c-.12.12-.33.41-.25.53s.12 1.23.12 1.23-.12 1.64-.16 1.81c-.04.16-.29.94-.2 1.19.08.25-.12 1.23 0 1.4.12.16.29.98.29.98s.7.7.82.74 3.32 1.85 3.45 1.97c0 0 .45-.12.53.04.07.14.55-.34.7-.58-.06.21-.17.62-.28.74-.09.09-.13.15-.19.23.51.28 1.11.58 1.26.63.25.08 1.76 1.23 1.97 1.31.2.08 1.19 1.1 1.19 1.1s.25.99.29 1.24.12 2.3.21 2.59c.08.29.25 1.64.33 1.89s.16 2.22.16 2.22.08.74.12.82-.08.65-.08.65l.12.82-.29.74-2.05 1.11s-1.6 1.07-1.81 1.11-1.07.37-1.27.41c-.21.04-.94.37-.94.37l-.53-.21s-.74-1.4-.74-1.56-.57-1.31-.49-1.44-.25-.86-.25-1.02-.37-.98-.37-.98l.37-.37-.45-.7s.08-.45.21-.62c.12-.16-.04-.89.12-1.02s.39-.79.39-.79l.39-.9c-.16 0-.9.27-.9.27l-.9 1.19s-1.33 1.36-1.54 1.52c-.2.16-1.27 1.21-1.27 1.21s-1.01.45-1.09.61-.12.58-.25.7c-.12.12-.53.66-.41.57.12-.08.7 0 .7 0l.45.36s.16.53.2.7c.04.16.29 1.31.33 1.48.04.16.16.82.25.94.08.12.37.66.53.74s.45.33.45.33l.29.78s.49.14.7.31 1.44.79 1.6.88c.16.08 1.44.25 1.44.25s1.31-.29 1.48-.33c.16-.04 1.19-.89 1.44-.79s1.72-.44 1.97-.52 1.31-.45 1.56-.57.86-.25.9-.37.46-.67.46-.67l1.2-.03 1.51-.55s.98-.22 1.02-.35c.04-.12.57-.74.57-.74l.6-.41s.47-.7.6-.78c.12-.08.49-.57.49-.57s-.12-.61 0-.82c.02-.03.02-.08.02-.14v-.03c0-.45-.28-1.56-.31-1.84-.04-.33-.57-1.27-.49-1.44.08-.16-.08-1.11-.16-1.44s-.66-2.01-.66-2.34-.62-2.38-.57-2.59c.04-.21-.16-.78-.16-1.03s-.21-.94-.33-1.07l-.99-.99c-.16-.16-2.13-1.44-2.3-1.68-.16-.25-2.34-1.68-2.5-1.77-.16-.08-2.67-1.48-2.67-1.48l-1.27-.99s-.86-.53-.86-.66-.16-.78-.16-.9-.16-.7.08-.86c.25-.16.49-.9.7-1.15s.74-.9.86-.98 1.23-.78 1.42-.78 2.11.12 2.23 0 2.38.29 2.38.29 1.15.53 1.27.49.61.29.66.41c.04.12.37.7.49.74s.49.49.49.49.41.9.53.99c.12.08.45.7.57.74s.62.41.62.41-.04-.7-.12-.9c-.08-.21-.45-1.31-.37-1.72s0-2.58 0-2.58l.04-.9s-.57-.25-.66-.41c-.08-.16-.53-.53-.66-.57-.12-.04-.9-.12-1.15-.21-.03-.01-.12-.02-.24-.02-.73 0-2.78.19-3.17.22" style="fill:url(#a)"/><path d="M45.22 38.37s-.04-.05-.06-.08c-.08-.06-.16-.12-.24-.19-.12 0-.16-.31-.16-.31l-.31-.31s-.34-.02-.43-.15q-.12-.165-.21-.33c-1.03-.39-2.7-1.33-2.7-1.33l-.94-.33 1.78-.63.49-.08 2.2-.91.13-.41c.07-.02.12-.07.14-.14v-.04c0-.03 0-.05.01-.08.02-.16.03-.32.04-.48 0-.07.06-.13.13-.14 0-.04.02-.08.04-.11.03-.07.07-.13.1-.2 0-.02-.01-.04-.02-.06-.03-.04-.06-.09-.09-.13-.02 0-.04-.02-.06-.03 0 0-.02-.01-.02-.02-.02-.01-.03-.03-.04-.04 0-.01-.02-.03-.03-.04 0-.02-.01-.03-.02-.05s-.06-.06-.09-.09c0-.02 0-.04-.01-.06h-.06s-.08-.07-.12-.1c-.15-.12-.31-.24-.46-.35v-.02h-.02c-.09-.07-.19-.14-.28-.21a44.494 44.494 0 0 0-4.12-2.73c-.01-.03-.03-.06-.04-.09-.15-.08-.3-.17-.45-.26a.08.08 0 0 1-.04-.04c-.09-.03-.19-.05-.28-.08-.52-.29-1.05-.57-1.59-.85q-.105-.045-.18 0c-.45-.05-2.84-.12-3.91-.07a1 1 0 0 0-.17-.02h-.26c-.19.14-.39.27-.63.31h-.04c-.02.02-.03.05-.05.07-.02-.02-.05-.03-.08-.04-.05.09-.11.18-.17.27-.03.04-.06.08-.08.13-.01.02-.02.04-.03.05s0 .01 0 .02-.02.03-.03.04v.02c.06.18.14.34.19.52.02.07.05.15.06.23.07.04.12.14.06.23-.15.24-.07.61-.04.87a12.689 12.689 0 0 1-.15 3.55h.01c.02.01.03.03.04.05s.01.04.01.06v.07c-.02.04-.04.08-.06.11 0 .01-.02.02-.03.04v.08s.08.05.1.11c.09.31.04.63.05.94.01.4.03.79.06 1.19.05.74.03 1.46-.08 2.19 0 .04-.02.07-.04.09.01.02.02.05.02.08 0 1 .07 2 .06 3 0 .51-.02 1.02-.08 1.53 0 .07-.01.13-.02.2-.01.19 0 .37.02.56.04 0 .08.02.12.03.05.01.08.05.09.1.02 0 .05.01.07.02l.09.06h.08c.02 0 .04.01.06.02.03.02.06.06.07.1v.02c.02.01.03.02.05.04h.01c.05.03.11.06.16.09.31 0 .65-.09.88-.16.1-.03.2-.07.31-.11.15 0 .3-.01.44-.02.32-.02.64-.07.95-.12 0 .03.02.06.04.08.11-.03.23-.05.34-.07.03 0 .06 0 .08.01.04-.03.08-.05.11-.08.03 0 .05-.01.08-.02.04-.02.08-.04.12-.07.11-.02.22-.04.33-.07.04 0 .07-.03.09-.05q.42-.105.84-.27c.05-.02.1-.06.13-.11.67-.21 1.34-.42 2.02-.63 1.26-.39 2.53-.76 3.79-1.13.04 0 .08 0 .12-.02l.06-.03c.06-.02.12-.03.18-.05s.1-.06.12-.1c.54-.2 1.05-.5 1.56-.74.04-.2.09-.4.16-.58v-.07c-.02-.05-.02-.11.01-.15 0-.07 0-.14.01-.21l.03-.47a.4.4 0 0 1-.11-.08c-.06-.05-.11-.12-.16-.18m-9.33-8.19c.19-.07.33-.08.44-.05l.18.12h.02l.12.06c.1.05.2.09.3.15.04.02.08.05.11.08.02.03.04.06.04.09.09.06.18.13.27.19.05-.03.11-.02.17 0 .1.06.2.11.29.17.24.14.48.28.7.44.1.07.29.24.29.24s.13.14.14.24c0 0 .02.01.03.02h.03c.06.03.11.06.17.08.13.07.55.21.55.21s-.15.19-.18.25q-.03.045-.09.06c-.27.15-.56.28-.86.37-.05.02-.09.03-.14.04h-.04v.02c-.15.04-.3.08-.45.14-.21.08-.41.19-.61.29-.23.12-.46.23-.69.35-.28-.02-.59.14-.82.17l.02-3.75Zm3.63 8.49c-.34.13-.66.3-.97.49-.04 0-.07-.01-.11-.02v.09c-.26.16-.5.11-.76.27-.26.07-.5.17-.74.3-.04.02-.08.04-.13.07-.35.05-.7.09-1.03.15.01-.33.02-.44.03-.77 0-.38.01-.77.01-1.15.03-.02.05-.04.05-.07.07-.29-.06-1.29 0-1.35.2.03.44 0 .69-.01l.42.15 2.24 1.14c.13.05.25.11.37.18.01 0 .02.02.03.03h.01l.15.07.06.23c-.14.05-.25.12-.34.2m3.71 1.68h-.02c.08-.04.15-.08.23-.11h.08l-.29.1Zm-1.48-.06s-.03.01-.04.02v-.03s.03 0 .04.01m18.41-5.66s.04-.11.02-.15a.3.3 0 0 0-.09-.12c-.02 0-.03-.01-.05-.02h-.05a.15.15 0 0 0-.09-.06h-.08c-.03-.05-.06-.09-.09-.13.02-.01.04-.03.06-.04.03-.02.05-.05.06-.08.03-.05.04-.1.04-.16v-.18c.02-.05 0-.11-.02-.15a.19.19 0 0 0-.12-.09c-.05-.01-.1 0-.14.01-2.02-.3-3.09-.21-5.12-.16-.02 0-.03 0-.06-.01-.67-.08-1.53.09-2.23.01a.6.6 0 0 1-.09-.23c.26-.2.52-.39.79-.57.05-.02.09-.03.12-.05.2-.13.29-.21.35-.26l.26-.17c.1-.04.26-.11.51-.2.06-.02.13-.13.21-.26.55-.34 1.1-.68 1.64-1.04.07.02.14 0 .2-.05l.44-.35c.03 0 .06-.01.08-.03l.02-.04 1.11-.87v-.16.03c0-.03 0-.06.02-.09v-.02c.02-.03.06-.05.1-.06l.02-.02a.6.6 0 0 1-.03-.18c0-.04.01-.06.03-.09v-.02s0-.01-.01-.02v-.14c0-.03.02-.05.04-.08v-.02c0-.03-.01-.06-.02-.09-.02-.06-.05-.1-.06-.17v-.08c-.03-.04-.05-.09-.02-.15.01-.02.03-.05.04-.07-.04-.07-.08-.13-.13-.2a.16.16 0 0 1-.08-.11c0-.08-.03-.15-.05-.23-.03 0-.06-.02-.09-.03-.04-.01-.09 0-.13 0 .01-.02-.1-.13-.11-.16-.01-.09-.03-.18-.04-.26.02-.02.04-.03.05-.05.03-.02.16.03.17 0-.02-.04-.16-.17-.17-.22-.02-.06-.02-.13-.03-.2-.05-.13-.1-.26-.16-.38-.06-.04-.11-.08-.17-.12-.02-.01-.03-.03-.05-.05-.02 0-.04 0-.07.01 0 0-.01-.02-.02-.03-.02 0-.03-.01-.05-.02-.02.02-.05.03-.07.05a1 1 0 0 1-.19.1c-.02.08-.04.16-.11.18-.05.01-.1.02-.15.02-.07-.08-.2-.12-.3-.04-.02.01-.03.03-.05.04-.04 0-.09.01-.13.03-.02 0-.04.02-.06.04h-.03c-.04.02-.08.04-.13.05-.04.02-.08.04-.12.07-.08.24-.41.33-.61.45-.25.16-.33.45-.55.65-.33.3-.81.48-1.19.73-.01 0-.02.01-.03.02-.11.06-.37-.05-.48.04-.02.01-.05.17-.11.34-.32.19-.63.38-.95.57-.14.05-.27.12-.41.26-.36.23-.7.48-1.03.75h-.03c-.08.03-.19.14-.3.29-.03.02-.05.05-.08.07-.5.49-.96 1.04-1.54 1.44-.06.04-.09.1-.09.16-.25.2-.51.39-.78.56-.11.07-.11.2-.05.29l-.02.02c-.13.18-.06.48-.08.69 0 0-.02 0-.03-.01-.05.13-.12.25-.2.36 0 .04-.01.09-.01.13 0 .03-.01.05-.02.07.01.34.01.69-.01 1.04-.02.09-.03.18-.04.26.01.09.03.18.06.26.03.11.05.21.03.32-.01.06-.04.11-.07.16.03.01.07.03.1.04.06.03.08.12.06.19-.05.16-.18.28-.18.45q.03.285 0 .57c.01 0 .02.01.03.02.08.01.17.04.25.06.47.48.96.93 1.48 1.35 0 .02.02.05.02.07.02.01.03.03.05.04.09.1.14.23.2.35v.02h.33c.23.18.47.35.71.51.12.14.22.27.28.32.39.36.63.44 1.06.64.06.03.64.71.9.85.14.07.65.36.69.37.02 0 .04 0 .06.01.16.13.34.24.52.34.13.07.27.15.4.23.13.09.24.2.36.31.13.12.28.2.42.28.12.13.22.22.24.23.06.02.12.04.18.05.26.22.56.39.88.52.03.01.05.01.07.01.07.06.18.05.25 0 .04 0 .07-.03.1-.05h.38v-.05l.03-.03c.01-.01.02-.03.03-.04 0-.02.01-.03.01-.05v-.05c0-.03 0-.05-.02-.07 0-.01-.02-.03-.02-.04.02 0 .04-.02.05-.03.02-.02.03-.04.05-.07.62.08.84-.01 1-.4.08.02.16 0 .24-.03.09-.05.14-.16.14-.26 0-.06-.01-.11-.02-.17.03-.02.06-.04.08-.06.08-.06.13-.18.07-.27-.01-.02-.04-.04-.06-.06.02-.03.03-.08.02-.11.15-.13.07-.34-.05-.47-.01-.01-.02-.03-.04-.04-.08-.1-.16-.19-.25-.27-.04-.05-.09-.09-.13-.14-.22-.23-.44-.47-.66-.7.02-.08 0-.17-.08-.22-.18-.12-.36-.24-.54-.37 0-.04.02-.09.05-.13h-.23c-1.07-.72-2.12-1.47-3.16-2.24a.2.2 0 0 0-.11-.04l-.93-.91c1.31-.07 2.99-.23 4.3-.09.1.01.16-.05.18-.13.08 0 .17 0 .25.01.03.03.08.05.13.05.45.05.91.05 1.37 0 .44-.05-.09-.12.36-.04.08.01.15-.02.19-.07.05 0 .09 0 .14-.02.07-.01.11-.06.13-.13h.05s.03.07.05.09c.04.03.09.06.14.06.03 0 .06 0 .09-.02.03 0 .07.02.11.02.07 0 .14-.02.2-.05a.5.5 0 0 0 .15-.13c.01-.02.02-.03.03-.05 0-.02 0-.04-.01-.06-.03-.08 0-.16.08-.2h.01v-.29c0-.15-.02-.29-.04-.44 0-.06.02-.13.07-.16 0-.08.01-.15.02-.23 0-.03 0-.05-.01-.08m-12.53-1.74s-.01-.02-.02-.03c.03-.02.05-.04.08-.06v.06s-.04.01-.06.02m8.86 10.56h.02-.01Zm3.83-9.13.01.01-.02-.02m16.48-5.94s.05-.07.05-.11c.03-.14-.05-.25-.17-.3-.17-.07-.54-.13-.54-.13l-.11-.13-.74-.1s-.1-.06-.17-.07c-.6-.08-3.04 0-3.04 0l-.19.11s-.62.02-.94-.01c-.34-.04-1.01-.04-1.01-.04l-.68.06-1.59-.1c-.63-.05-1.88-.09-1.88-.09l-2.13.03-.35-.06-.48.15s-.1.06-.15.08h-.01c-.19 0-.38 0-.57.05-.04.01-.08.03-.1.06-.01 0-.02.01-.03.02s-.02.03-.03.04c-.05.01-.1.05-.12.09s-.03.13-.03.13l-.09.04.04.32s0 .17.04.24c0 .02.01.04.02.06v.18c0 .03-.03.14-.04.16 0 .01-.05.04-.05.04v.16c-.12.1-.42.28-.42.28l-.09.15.04.18.13.24v.01q.015.27.06.54c-.01.05 0 .22 0 .22h.14c.36.08.73.09 1.09.04l.32-.06c.14.03.28.08.41.11.37.08.71.03 1.08-.03.67-.11 1.35-.03 2.03.05-.03.05-.05.11-.04.17q.165.84.3 1.68v9.63h.02v.32c0 .05.02.1.06.14-.04.05-.06.11-.03.17 0 .02.02.03.02.05v.01c.03.07.08.13.14.18-.05.08-.05.18.02.24.16.15.37.2.58.22.09 0 .18.01.27.02h.09c.05 0 .09.02.14.04.1.03.22-.04.24-.14v-.02s.05-.06.07-.09c0 0 .02-.01.03-.02.04-.04.05-.09.06-.14v-.02c.17-.07.34-.13.51-.2.04.02.08.05.11.08 0 .02 0 .03.02.04.05.08.15.12.25.1.07-.02.12-.06.17-.11.02-.01.03-.03.04-.04s.02-.02.03-.02c.04-.03.08-.05.12-.07.1-.06.14-.07.24-.1.16-.05.35-.06.49-.16.05 0 .1-.02.13-.06.04-.04.07-.12.05-.18.02-.06.03-.13.03-.2l.05-.04V31.96c.03-.29.07-.57.11-.86.26-.01.52-.04.78-.05 1.09-.07 2.17-.03 3.26 0 .03 0 .06 0 .09-.02.04.02.08.04.12.05.08.04 1.21-.08 1.21-.08l-.04-.08s-.04-.14-.01-.15c.05-.03.1-.06.16-.1.07-.05.27-.08.27-.08v-.15l.13-.24-.03-.03c-.01-.44.08-1.48.08-1.48s-.12-.03-.16-.06v-.12a.5.5 0 0 0 .11-.2m-5.58 2.39h.19-.2Z" style="fill:#fff"/></svg>